REM GENRE Animation
REM DATE 2008
PERFORMER "Blender Foundation"
TITLE "Big Buck Bunny - Chapters"
FILE "BigBuckBunny.mp4" MP4
  TRACK 01 VIDEO
    TITLE "Opening Credits"
    PERFORMER "Blender Foundation"
    INDEX 01 00:00:00
  TRACK 02 VIDEO
    TITLE "The Butterfly"
    INDEX 01 00:42:50
  TRACK 03 VIDEO
    TITLE "The Bullies Appear"
    INDEX 01 01:15:25
  TRACK 04 VIDEO
    TITLE "Big Buck Bunny Gets Angry"
    INDEX 01 02:30:00
  TRACK 05 VIDEO
    TITLE "The Trap"
    INDEX 01 04:10:50
  TRACK 06 VIDEO
    TITLE "Revenge"
    INDEX 01 06:45:00
  TRACK 07 VIDEO
    TITLE "Ending Credits"
    INDEX 01 09:20:25
